{
    "asset" : {
        "generator" : "Khronos glTF Blender I/O v1.7.33",
        "version" : "2.0"
    },
    "scene" : 0,
    "scenes" : [
        {
            "name" : "Scene",
            "nodes" : [
                4
            ]
        }
    ],
    "nodes" : [
        {
            "mesh" : 0,
            "name" : "Cylinder001",
            "scale" : [
                1,
                1,
                0.6924953460693359
            ],
            "translation" : [
                0,
                9.022946323966607e-05,
                -0.11257500946521759
            ]
        },
        {
            "mesh" : 1,
            "name" : "Cylinder001_1",
            "scale" : [
                1,
                1,
                0.20000000298023224
            ],
            "translation" : [
                0,
                -6.142952042864636e-05,
                0.07664267718791962
            ]
        },
        {
            "mesh" : 2,
            "name" : "Cylinder001_2",
            "scale" : [
                0.5,
                0.5,
                0.3100001811981201
            ],
            "translation" : [
                0.007263839244842529,
                0.00154564727563411,
                0.13565059006214142
            ]
        },
        {
            "children" : [
                0,
                1,
                2
            ],
            "name" : "arrow_teamBlue",
            "rotation" : [
                0.7071068286895752,
                0,
                0,
                0.7071067094802856
            ]
        },
        {
            "children" : [
                3
            ],
            "name" : "Scene",
            "rotation" : [
                1,
                0,
                0,
                0.00032906135311350226
            ],
            "scale" : [
                8,
                8,
                8
            ]
        }
    ],
    "materials" : [
        {
            "alphaMode" : "BLEND",
            "name" : "Metal004",
            "pbrMetallicRoughness" : {
                "baseColorFactor" : [
                    0.3137255012989044,
                    0.3137255012989044,
                    0.24313725531101227,
                    1
                ],
                "metallicFactor" : 0.10000000149011612,
                "roughnessFactor" : 0.20000000298023224
            }
        },
        {
            "alphaMode" : "BLEND",
            "name" : "BrownDark006",
            "pbrMetallicRoughness" : {
                "baseColorFactor" : [
                    0.4588235318660736,
                    0.10980392247438431,
                    0.05098039284348488,
                    1
                ],
                "metallicFactor" : 0.30000001192092896,
                "roughnessFactor" : 0.20000000298023224
            }
        },
        {
            "alphaMode" : "BLEND",
            "name" : "Blue003",
            "pbrMetallicRoughness" : {
                "baseColorFactor" : [
                    0,
                    0.16470588743686676,
                    0.46666666865348816,
                    1
                ],
                "metallicFactor" : 0.20000000298023224,
                "roughnessFactor" : 0.20000000298023224
            }
        }
    ],
    "meshes" : [
        {
            "name" : "Mesh_0",
            "primitives" : [
                {
                    "attributes" : {
                        "POSITION" : 0,
                        "NORMAL" : 1,
                        "TEXCOORD_0" : 2
                    },
                    "indices" : 3,
                    "material" : 0
                }
            ]
        },
        {
            "name" : "Mesh_1",
            "primitives" : [
                {
                    "attributes" : {
                        "POSITION" : 4,
                        "NORMAL" : 5,
                        "TEXCOORD_0" : 6
                    },
                    "indices" : 7,
                    "material" : 1
                }
            ]
        },
        {
            "name" : "Mesh_2",
            "primitives" : [
                {
                    "attributes" : {
                        "POSITION" : 8,
                        "NORMAL" : 9,
                        "TEXCOORD_0" : 10
                    },
                    "indices" : 11,
                    "material" : 2
                }
            ]
        }
    ],
    "accessors" : [
        {
            "bufferView" : 0,
            "componentType" : 5126,
            "count" : 56,
            "max" : [
                0.07402753829956055,
                0.07402760535478592,
                0.5322625041007996
            ],
            "min" : [
                -0.07402769476175308,
                -0.0740276351571083,
                0.3736999034881592
            ],
            "type" : "VEC3"
        },
        {
            "bufferView" : 1,
            "componentType" : 5126,
            "count" : 56,
            "type" : "VEC3"
        },
        {
            "bufferView" : 2,
            "componentType" : 5126,
            "count" : 56,
            "type" : "VEC2"
        },
        {
            "bufferView" : 3,
            "componentType" : 5123,
            "count" : 72,
            "type" : "SCALAR"
        },
        {
            "bufferView" : 4,
            "componentType" : 5126,
            "count" : 53,
            "max" : [
                0.04574008285999298,
                0.04574015736579895,
                0.37369993329048157
            ],
            "min" : [
                -0.04574025049805641,
                -0.04574017971754074,
                -0.6307129263877869
            ],
            "type" : "VEC3"
        },
        {
            "bufferView" : 5,
            "componentType" : 5126,
            "count" : 53,
            "type" : "VEC3"
        },
        {
            "bufferView" : 6,
            "componentType" : 5126,
            "count" : 53,
            "type" : "VEC2"
        },
        {
            "bufferView" : 7,
            "componentType" : 5123,
            "count" : 210,
            "type" : "SCALAR"
        },
        {
            "bufferView" : 8,
            "componentType" : 5126,
            "count" : 154,
            "max" : [
                0.1782570779323578,
                0.20583362877368927,
                -0.2791348993778229
            ],
            "min" : [
                -0.17825724184513092,
                -0.10317570716142654,
                -0.7039470076560974
            ],
            "type" : "VEC3"
        },
        {
            "bufferView" : 9,
            "componentType" : 5126,
            "count" : 154,
            "type" : "VEC3"
        },
        {
            "bufferView" : 10,
            "componentType" : 5126,
            "count" : 154,
            "type" : "VEC2"
        },
        {
            "bufferView" : 11,
            "componentType" : 5123,
            "count" : 216,
            "type" : "SCALAR"
        }
    ],
    "bufferViews" : [
        {
            "buffer" : 0,
            "byteLength" : 672,
            "byteOffset" : 0
        },
        {
            "buffer" : 0,
            "byteLength" : 672,
            "byteOffset" : 672
        },
        {
            "buffer" : 0,
            "byteLength" : 448,
            "byteOffset" : 1344
        },
        {
            "buffer" : 0,
            "byteLength" : 144,
            "byteOffset" : 1792
        },
        {
            "buffer" : 0,
            "byteLength" : 636,
            "byteOffset" : 1936
        },
        {
            "buffer" : 0,
            "byteLength" : 636,
            "byteOffset" : 2572
        },
        {
            "buffer" : 0,
            "byteLength" : 424,
            "byteOffset" : 3208
        },
        {
            "buffer" : 0,
            "byteLength" : 420,
            "byteOffset" : 3632
        },
        {
            "buffer" : 0,
            "byteLength" : 1848,
            "byteOffset" : 4052
        },
        {
            "buffer" : 0,
            "byteLength" : 1848,
            "byteOffset" : 5900
        },
        {
            "buffer" : 0,
            "byteLength" : 1232,
            "byteOffset" : 7748
        },
        {
            "buffer" : 0,
            "byteLength" : 432,
            "byteOffset" : 8980
        }
    ],
    "buffers" : [
        {
            "byteLength" : 9412,
            "uri" : "data:application/octet-stream;base64,"
        }
    ]
}
